# xmcd
#
# Track frame offsets: 
#        182
#        20257
#        35932
#        46890
#        61110
#        77745
#        92090
#        104625
#        111707
#        128042
#        139200
#        154320
#        170162
#        185557
#        198765
#
# Disc length: 2907 seconds
#
# Revision: 1
# Processed by: cddbd v1.5.2PL0 Copyright (c) Steve Scherf et al.
# Submitted via: ExactAudioCopy v0.99pb3
#
DISCID=d80b590f
DTITLE=Pedro Guzmán - Jíbaro Jazz II
DYEAR=1990
DGENRE=Latin Jazz
TTITLE0=Saint John
TTITLE1=Mario Brothers
TTITLE2=Gufeando
TTITLE3=Mapeye Montuno
TTITLE4=Amigo
TTITLE5=Guireando
TTITLE6=De Aqui Pa'Alla
TTITLE7=Maria Tiene Una Ovejita
TTITLE8=Soñando con Puerto Rico
TTITLE9=Mi Bella Genio
TTITLE10=Renacimiento
TTITLE11=Bayuya Sambada
TTITLE12=Ñame Blues
TTITLE13=Seis Antillano
TTITLE14=Fantasia del Cuatro
EXTD=YEAR: 1990
EXTT0=
EXTT1=
EXTT2=
EXTT3=
EXTT4=
EXTT5=
EXTT6=
EXTT7=
EXTT8=
EXTT9=
EXTT10=
EXTT11=
EXTT12=
EXTT13=
EXTT14=
PLAYORDER=
